name D:\school\WTK\thesis\model\3dpredictsim\Results\Batchsim_tmt_linear\Pog_s1_tmt_bCst_d05_k250_ig24.mot
datacolumns 128
datarows 4
range 1.63748498 1.67023468
endheader
time	pelvis_tilt	pelvis_list	pelvis_rotation	pelvis_tx	pelvis_ty	pelvis_tz	hip_flexion_l	hip_adduction_l	hip_rotation_l	hip_flexion_r	hip_adduction_r	hip_rotation_r	knee_angle_l	knee_angle_r	ankle_angle_l	ankle_angle_r	subtalar_angle_l	subtalar_angle_r	tmt_angle_l	tmt_angle_r	mtp_angle_l	mtp_angle_r	lumbar_extension	lumbar_bending	lumbar_rotation	arm_flex_l	arm_add_l	arm_rot_l	arm_flex_r	arm_add_r	arm_rot_r	elbow_flex_l	elbow_flex_r	pro_sup_l	pro_sup_r	glut_med1_l/activation	glut_med2_l/activation	glut_med3_l/activation	glut_min1_l/activation	glut_min2_l/activation	glut_min3_l/activation	semimem_l/activation	semiten_l/activation	bifemlh_l/activation	bifemsh_l/activation	sar_l/activation	add_long_l/activation	add_brev_l/activation	add_mag1_l/activation	add_mag2_l/activation	add_mag3_l/activation	tfl_l/activation	pect_l/activation	grac_l/activation	glut_max1_l/activation	glut_max2_l/activation	glut_max3_l/activation	iliacus_l/activation	psoas_l/activation	quad_fem_l/activation	gem_l/activation	peri_l/activation	rect_fem_l/activation	vas_med_l/activation	vas_int_l/activation	vas_lat_l/activation	med_gas_l/activation	lat_gas_l/activation	soleus_l/activation	tib_post_l/activation	flex_dig_l/activation	flex_hal_l/activation	tib_ant_l/activation	per_brev_l/activation	per_long_l/activation	per_tert_l/activation	ext_dig_l/activation	ext_hal_l/activation	ercspn_l/activation	intobl_l/activation	extobl_l/activation	glut_med1_r/activation	glut_med2_r/activation	glut_med3_r/activation	glut_min1_r/activation	glut_min2_r/activation	glut_min3_r/activation	semimem_r/activation	semiten_r/activation	bifemlh_r/activation	bifemsh_r/activation	sar_r/activation	add_long_r/activation	add_brev_r/activation	add_mag1_r/activation	add_mag2_r/activation	add_mag3_r/activation	tfl_r/activation	pect_r/activation	grac_r/activation	glut_max1_r/activation	glut_max2_r/activation	glut_max3_r/activation	iliacus_r/activation	psoas_r/activation	quad_fem_r/activation	gem_r/activation	peri_r/activation	rect_fem_r/activation	vas_med_r/activation	vas_int_r/activation	vas_lat_r/activation	med_gas_r/activation	lat_gas_r/activation	soleus_r/activation	tib_post_r/activation	flex_dig_r/activation	flex_hal_r/activation	tib_ant_r/activation	per_brev_r/activation	per_long_r/activation	per_tert_r/activation	ext_dig_r/activation	ext_hal_r/activation	ercspn_r/activation	intobl_r/activation	extobl_r/activation	
          1.63748498	         -2.92628878	          2.23656729	         -5.96708571	          2.04685622	          0.85758068	          0.00240293	         31.77787084	          3.37022746	         -1.33397063	        -17.70009751	         -1.91586265	          8.07556222	        -15.79389598	         -9.16027293	          6.69846896	         -0.75646558	         -2.92597883	         12.38108662	          0.14524157	          3.84076178	         -0.09226308	         20.17199656	         -1.92418070	         -0.81255843	          1.91308000	         -9.19908026	        -13.56393566	          7.58847148	          7.04343055	        -13.47153326	         17.74416038	         14.37156861	         37.83239985	         86.51662706	         86.51662706	          0.05909713	          0.05909715	          0.05000007	          0.05909723	          0.05909720	          0.05909708	          0.05909711	          0.05909707	          0.17996677	          0.05000036	          0.05000024	          0.13632464	          0.31933978	          0.10472353	          0.16293743	          0.10634221	          0.05000016	          0.09232622	          0.11423882	          0.05000020	          0.05000013	          0.05000035	          0.05909781	          0.05557969	          0.45514668	          0.26552962	          0.12966480	          0.06015024	          0.16853358	          0.17257452	          0.14641426	          0.06096293	          0.05919822	          0.05909740	          0.05000001	          0.05000159	          0.05005719	          0.57922084	          0.36096918	          0.20016500	          0.37130139	          0.57149799	          0.31909953	          0.05909714	          0.09263468	          0.09515948	          0.29646383	          0.09834242	          0.06250056	          0.30991511	          0.21206921	          0.10261399	          0.05000123	          0.05000018	          0.05000014	          0.06842317	          0.10165951	          0.10156603	          0.16079533	          0.05000203	          0.05000269	          0.05000074	          0.29292571	          0.05912588	          0.05000106	          0.05000072	          0.05000054	          0.05000054	          0.30864706	          0.51285315	          0.05000011	          0.05000038	          0.05000018	          0.16663625	          0.07369899	          0.05001815	          0.12256953	          0.27431259	          0.37047160	          0.26149081	          0.22923079	          0.26483380	          0.32036666	          0.05000001	          0.05909769	          0.14772448	          0.05000008	          0.05000002	          0.05000008	          0.05000003	          0.05000015	          0.06781999	
          1.64840155	         -2.91712705	          2.35601256	         -6.21582421	          2.06348664	          0.85646584	          0.00217634	         31.08660879	          3.80069931	         -1.09654205	        -17.36046897	         -2.21302203	          7.81855258	        -16.01148993	        -11.46866512	          6.01381941	         -1.70813739	         -3.41570685	         13.40257348	          0.12730899	          3.68257423	         -0.07088107	         21.32157570	         -1.72083792	         -1.06655866	          1.98892360	        -10.24695697	        -13.56106605	          7.41771658	          6.77245592	        -13.49434541	         17.90918733	         14.26400956	         38.97724106	         86.51662706	         86.51662706	          0.05000000	          0.05000004	          0.10087770	          0.05000009	          0.05000007	          0.05000005	          0.05000004	          0.05000007	          0.15226355	          0.05000003	          0.05000067	          0.11533954	          0.27239793	          0.36559808	          0.23333840	          0.11530921	          0.05000034	          0.07825985	          0.12020050	          0.06318617	          0.10391455	          0.11817132	          0.05000061	          0.05909762	          0.55219216	          0.22465526	          0.10970484	          0.06984919	          0.22460345	          0.23246226	          0.19442496	          0.05909725	          0.05909747	          0.05000023	          0.05909718	          0.06984900	          0.06984016	          0.52304978	          0.39285327	          0.22713775	          0.35895752	          0.55044740	          0.26997888	          0.05000001	          0.07837494	          0.08051107	          0.25082760	          0.08320407	          0.05909715	          0.26220828	          0.17942431	          0.08681810	          0.05000273	          0.05000037	          0.05000153	          0.05789045	          0.08601063	          0.20960797	          0.21463030	          0.19908991	          0.05909926	          0.05909923	          0.24783416	          0.05002467	          0.05000382	          0.05909649	          0.05909709	          0.05909730	          0.26113540	          0.46939191	          0.05909719	          0.05909736	          0.05458542	          0.14098506	          0.13631586	          0.13631628	          0.12528946	          0.23208619	          0.31344294	          0.22123814	          0.19394410	          0.22406662	          0.27105098	          0.05000002	          0.05000049	          0.12498453	          0.05000004	          0.05000003	          0.05000010	          0.07087036	          0.06262488	          0.05826331	
          1.65931811	         -2.90343756	          2.47552331	         -6.43194900	          2.08034920	          0.85526382	          0.00196606	         30.17759353	          4.14445206	         -0.82441116	        -16.93637275	         -2.49216419	          7.54710729	        -16.32748646	        -13.91700100	          5.56502124	         -2.77642448	         -3.91480609	         14.33547042	         -0.12446024	          3.40989656	         -0.17750294	         22.29904192	         -1.50024074	         -1.32459058	          2.05456695	        -11.28062469	        -13.56494311	          7.31401450	          6.41867465	        -13.51979018	         17.99524866	         14.15381960	         40.10070596	         86.51662706	         86.51662706	          0.27926333	          0.29214452	          0.34262682	          0.42993250	          0.25515162	          0.19795031	          0.08411898	          0.10511393	          0.13702440	          0.08350588	          0.05909729	          0.09758473	          0.23046629	          0.30931967	          0.19741947	          0.10528301	          0.05000021	          0.06621364	          0.10169805	          0.18287192	          0.14979955	          0.09998065	          0.05000210	          0.05000054	          0.46719031	          0.19007298	          0.24259965	          0.05909694	          0.19002908	          0.19667815	          0.16449612	          0.05000022	          0.05000042	          0.05269206	          0.05000006	          0.05909722	          0.05909712	          0.60915271	          0.43273108	          0.21253725	          0.60809276	          0.62995306	          0.33742198	          0.06647641	          0.09518354	          0.06811758	          0.36085669	          0.07039603	          0.05000003	          0.36051199	          0.15180462	          0.07345375	          0.05000146	          0.05000008	          0.05000006	          0.05000013	          0.07277103	          0.17734204	          0.18159191	          0.16844299	          0.05000206	          0.05000187	          0.21205428	          0.10669887	          0.05000033	          0.05000056	          0.05000039	          0.05000029	          0.22093754	          0.43233177	          0.05000007	          0.05000032	          0.05000006	          0.11928249	          0.11533206	          0.11533241	          0.10600301	          0.19635992	          0.26519300	          0.18718177	          0.16408927	          0.18957492	          0.22932671	          0.11608754	          0.15403287	          0.16815238	          0.05000066	          0.18311258	          0.05000056	          0.07799370	          0.05298470	          0.05000003	
          1.67023468	         -2.88730397	          2.58144276	         -6.60964153	          2.09719988	          0.85400625	          0.00173175	         29.17825089	          4.46232070	         -0.55260195	        -16.39914451	         -2.74174305	          7.27248539	        -16.56132459	        -16.52897884	          5.23211609	         -3.82124040	         -4.44605424	         15.19277431	         -0.04886761	          2.94331111	         -0.19143870	         22.86254984	         -1.28725407	         -1.57127041	          2.10971484	        -12.24604048	        -13.56967041	          7.28253700	          6.02793205	        -13.55517004	         18.03309389	         14.01159742	         41.17276488	         86.51662706	         86.51662706	          0.41339368	          0.44238664	          0.48028335	          0.36375128	          0.21589055	          0.40139256	          0.07879144	          0.11963415	          0.11593158	          0.07065140	          0.05000032	          0.08256302	          0.19498945	          0.26170469	          0.23517848	          0.16446786	          0.05000016	          0.05909435	          0.11528529	          0.26976257	          0.20053762	          0.15741431	          0.05000009	          0.05000008	          0.39527323	          0.16081409	          0.26091162	          0.05000002	          0.23734633	          0.26262504	          0.20985203	          0.05000001	          0.05000002	          0.05000000	          0.05000000	          0.05000015	          0.05000008	          0.70616351	          0.36611850	          0.17982027	          0.70715934	          0.64710839	          0.45815553	          0.08862585	          0.08053143	          0.05763189	          0.30530813	          0.05955962	          0.05000006	          0.30501651	          0.12843658	          0.06214667	          0.05000159	          0.05000021	          0.05000029	          0.05000006	          0.06156914	          0.20179179	          0.16870957	          0.17979115	          0.05001113	          0.11859374	          0.17941176	          0.09027442	          0.05000028	          0.05000193	          0.05000135	          0.05000093	          0.18692746	          0.37279135	          0.05000012	          0.05000049	          0.05000012	          0.10092070	          0.09757842	          0.09757871	          0.08968543	          0.16613319	          0.22437043	          0.15836788	          0.13883016	          0.16039274	          0.19402530	          0.19654698	          0.14234614	          0.14767436	          0.19125314	          0.23914779	          0.11077575	          0.11103918	          0.05000001	          0.05000002	
